<svg width="218" height="54" viewBox="0 0 218 54" fill="none" xmlns="http://www.w3.org/2000/svg">
<path d="M13.4181 14.4736C12.6482 14.052 11.86 13.7037 11.0534 13.4287C10.2652 13.1538 9.52281 13.0163 8.82624 13.0163C7.9647 13.0163 7.28646 13.1904 6.79153 13.5387C6.2966 13.887 6.04914 14.4094 6.04914 15.106C6.04914 15.5826 6.23244 16.0134 6.59906 16.3983C6.984 16.7649 7.46977 17.0949 8.05635 17.3882C8.66126 17.6815 9.28451 17.9473 9.92608 18.1856C10.5127 18.4055 11.0901 18.6713 11.6583 18.983C12.2449 19.2762 12.7673 19.652 13.2256 20.1103C13.6839 20.5502 14.0505 21.1093 14.3255 21.7876C14.6004 22.4475 14.7379 23.2632 14.7379 24.2347C14.7379 25.2612 14.4721 26.2144 13.9405 27.0943C13.4089 27.9742 12.6299 28.6891 11.6033 29.239C10.5768 29.7706 9.312 30.0364 7.80888 30.0364C7.03899 30.0364 6.25077 29.9631 5.44422 29.8164C4.656 29.6514 3.87695 29.4131 3.10706 29.1015C2.33717 28.7716 1.59477 28.3591 0.879874 27.8642L2.63962 24.7571C3.11622 25.1054 3.62948 25.417 4.1794 25.692C4.74766 25.9486 5.31591 26.1503 5.88416 26.2969C6.45241 26.4436 6.97484 26.5169 7.45144 26.5169C7.92803 26.5169 8.40463 26.4527 8.88123 26.3244C9.37616 26.1778 9.77944 25.9395 10.0911 25.6095C10.421 25.2796 10.586 24.8213 10.586 24.2347C10.586 23.8314 10.4485 23.4648 10.1735 23.1349C9.91692 22.8049 9.55947 22.5025 9.1012 22.2275C8.66126 21.9525 8.1755 21.7142 7.64391 21.5126C7.02066 21.2743 6.37909 20.9993 5.71918 20.6877C5.05928 20.3761 4.43603 20.0003 3.84945 19.5604C3.2812 19.1021 2.81376 18.543 2.44715 17.8831C2.09887 17.2049 1.92472 16.38 1.92472 15.4085C1.92472 14.2353 2.18136 13.2179 2.69462 12.3564C3.22621 11.4949 3.9686 10.8166 4.9218 10.3217C5.87499 9.80843 6.97484 9.5243 8.22133 9.46931C9.85276 9.46931 11.1726 9.66179 12.1808 10.0467C13.2073 10.4317 14.1238 10.8899 14.9304 11.4215L13.4181 14.4736ZM22.767 9.5793H36.405V13.4287H31.4832V29.8164H27.4963V13.4287H22.767V9.5793ZM43.8165 19.7253C43.8165 18.3322 44.0823 17.0124 44.6139 15.7659C45.1455 14.5194 45.8787 13.4196 46.8136 12.4664C47.7668 11.4949 48.8666 10.7341 50.1131 10.1842C51.3596 9.63429 52.6977 9.35933 54.1275 9.35933C55.539 9.35933 56.868 9.63429 58.1145 10.1842C59.3609 10.7341 60.4608 11.4949 61.414 12.4664C62.3855 13.4196 63.1371 14.5194 63.6687 15.7659C64.2186 17.0124 64.4935 18.3322 64.4935 19.7253C64.4935 21.1551 64.2186 22.4933 63.6687 23.7398C63.1371 24.9863 62.3855 26.0861 61.414 27.0393C60.4608 27.9742 59.3609 28.7074 58.1145 29.239C56.868 29.7706 55.539 30.0364 54.1275 30.0364C52.6977 30.0364 51.3596 29.7706 50.1131 29.239C48.8666 28.7074 47.7668 27.9742 46.8136 27.0393C45.8787 26.0861 45.1455 24.9863 44.6139 23.7398C44.0823 22.4933 43.8165 21.1551 43.8165 19.7253ZM47.9409 19.7253C47.9409 20.6236 48.0967 21.4668 48.4083 22.255C48.7383 23.0249 49.1874 23.7123 49.7556 24.3172C50.3422 24.9038 51.0113 25.362 51.7629 25.692C52.5327 26.0219 53.3668 26.1869 54.265 26.1869C55.1265 26.1869 55.9239 26.0219 56.6572 25.692C57.4087 25.362 58.0595 24.9038 58.6094 24.3172C59.1593 23.7123 59.5901 23.0249 59.9017 22.255C60.2133 21.4668 60.3691 20.6236 60.3691 19.7253C60.3691 18.8088 60.2042 17.9564 59.8742 17.1682C59.5626 16.38 59.1226 15.6926 58.5544 15.106C58.0045 14.5011 57.3537 14.0337 56.6022 13.7037C55.8506 13.3738 55.0349 13.2088 54.155 13.2088C53.2751 13.2088 52.4594 13.3738 51.7079 13.7037C50.9563 14.0337 50.2964 14.5011 49.7281 15.106C49.1599 15.6926 48.72 16.38 48.4083 17.1682C48.0967 17.9564 47.9409 18.8088 47.9409 19.7253ZM80.0993 9.5793C81.3641 9.5793 82.4914 9.74427 83.4813 10.0742C84.4712 10.3858 85.296 10.8441 85.9559 11.449C86.6342 12.0356 87.1474 12.7505 87.4957 13.5937C87.844 14.4186 88.0181 15.3535 88.0181 16.3983C88.0181 17.2232 87.8898 18.0481 87.6332 18.873C87.3949 19.6979 86.9916 20.4494 86.4234 21.1276C85.8735 21.8059 85.1402 22.3558 84.2237 22.7774C83.3072 23.1807 82.1707 23.3823 80.8142 23.3823H77.9546V29.8164H73.9677V9.5793H80.0993ZM80.7867 19.5329C81.3916 19.5329 81.8957 19.4321 82.299 19.2304C82.7022 19.0288 83.0139 18.7722 83.2338 18.4605C83.4721 18.1489 83.6371 17.8281 83.7288 17.4982C83.8387 17.1499 83.8937 16.8291 83.8937 16.5358C83.8937 16.3158 83.8571 16.0409 83.7838 15.7109C83.7288 15.3626 83.6004 15.0144 83.3988 14.6661C83.1972 14.3178 82.8855 14.0245 82.4639 13.7862C82.0607 13.5479 81.5107 13.4287 80.8142 13.4287H77.9546V19.5329H80.7867ZM84.5261 22.0075L89.5304 29.8164H84.8836L79.7693 22.1175L84.5261 22.0075ZM101.931 23.5198L94.4791 9.5793H99.4009L104.625 20.0828L103.443 20.1653L108.585 9.5793H113.506L105.917 23.5198V29.8164H101.931V23.5198ZM122.021 9.5793H126.008V25.967H135.522V29.8164H122.021V9.5793ZM142.853 29.8164L151.982 8.78191H152.202L161.33 29.8164H156.711L150.882 15.0235L153.769 13.0438L146.785 29.8164H142.853ZM149.095 22.5025H155.171L156.574 25.857H147.857L149.095 22.5025ZM187.9 30.6413L172.557 16.7833L173.739 17.4432L173.822 29.8164H169.78V8.78191H169.945L184.957 22.5849L184.078 22.2L183.995 9.5793H188.01V30.6413H187.9ZM198.72 29.8164V9.5793H204.769C206.804 9.5793 208.536 9.88175 209.966 10.4867C211.396 11.0916 212.542 11.8981 213.403 12.9063C214.283 13.9145 214.925 15.0419 215.328 16.2883C215.731 17.5348 215.933 18.7905 215.933 20.0553C215.933 21.5584 215.658 22.9149 215.108 24.1247C214.576 25.3162 213.843 26.3427 212.908 27.2043C211.973 28.0475 210.892 28.6982 209.664 29.1565C208.436 29.5964 207.134 29.8164 205.759 29.8164H198.72ZM202.707 25.967H205.072C206.08 25.967 206.997 25.8386 207.822 25.582C208.646 25.3071 209.352 24.9129 209.939 24.3997C210.544 23.8864 211.002 23.2448 211.314 22.475C211.643 21.6867 211.808 20.7885 211.808 19.7803C211.808 18.4605 211.588 17.3882 211.149 16.5633C210.727 15.7201 210.195 15.0693 209.554 14.6111C208.931 14.1528 208.289 13.8412 207.629 13.6762C206.969 13.4929 206.41 13.4013 205.952 13.4013H202.707V25.967Z" fill="#6277A8"/>
<path d="M1.04485 39.0927H6.10413V40.6324H2.63962V42.4692H5.64219V44.009H2.63962V47.1875H1.04485V39.0927ZM11.1591 44.1959C11.1591 44.4526 11.2361 44.6982 11.3901 44.9328C11.5441 45.1675 11.7457 45.3581 11.995 45.5047C12.2516 45.6514 12.5302 45.7247 12.8309 45.7247C13.1608 45.7247 13.4541 45.6514 13.7107 45.5047C13.9674 45.3581 14.169 45.1675 14.3157 44.9328C14.4696 44.6982 14.5466 44.4526 14.5466 44.1959V39.0927H16.1194V44.2289C16.1194 44.8228 15.9728 45.3508 15.6795 45.8127C15.3862 46.2673 14.9902 46.6266 14.4916 46.8905C13.993 47.1472 13.4394 47.2755 12.8309 47.2755C12.2296 47.2755 11.6797 47.1472 11.1811 46.8905C10.6898 46.6266 10.2976 46.2673 10.0043 45.8127C9.71098 45.3508 9.56434 44.8228 9.56434 44.2289V39.0927H11.1591V44.1959ZM27.3802 47.5175L21.2431 41.9742L21.7161 42.2382L21.749 47.1875H20.1323V38.7737H20.1983L26.2034 44.2949L25.8515 44.1409L25.8185 39.0927H27.4242V47.5175H27.3802ZM31.5986 39.0927H37.1198V40.6324H33.1933V42.3592H36.6688V43.899H33.1933V45.6477H37.2738V47.1875H31.5986V39.0927ZM43.466 39.0927C43.972 39.0927 44.4229 39.1586 44.8189 39.2906C45.2148 39.4153 45.5448 39.5986 45.8087 39.8405C46.08 40.0752 46.2853 40.3611 46.4246 40.6984C46.5639 41.0284 46.6336 41.4023 46.6336 41.8203C46.6336 42.1502 46.5823 42.4802 46.4796 42.8101C46.3843 43.1401 46.223 43.4407 45.9957 43.712C45.7757 43.9833 45.4824 44.2033 45.1158 44.3719C44.7492 44.5332 44.2946 44.6139 43.752 44.6139H42.6082V47.1875H41.0134V39.0927H43.466ZM43.741 43.0741C43.983 43.0741 44.1846 43.0338 44.3459 42.9531C44.5072 42.8724 44.6319 42.7698 44.7199 42.6451C44.8152 42.5205 44.8812 42.3922 44.9178 42.2602C44.9618 42.1209 44.9838 41.9926 44.9838 41.8753C44.9838 41.7873 44.9692 41.6773 44.9398 41.5453C44.9178 41.406 44.8665 41.2667 44.7859 41.1274C44.7052 40.9881 44.5806 40.8707 44.4119 40.7754C44.2506 40.6801 44.0306 40.6324 43.752 40.6324H42.6082V43.0741H43.741ZM45.2368 44.0639L47.2385 47.1875H45.3798L43.3341 44.1079L45.2368 44.0639ZM49.7302 47.1875L53.3816 38.7737H53.4696L57.1211 47.1875H55.2734L52.9417 41.2703L54.0965 40.4785L51.3029 47.1875H49.7302ZM52.2268 44.2619H54.6575L55.2184 45.6037H51.7319L52.2268 44.2619ZM60.3908 39.0927H61.9856V45.6477H65.7911V47.1875H60.3908V39.0927ZM82.0008 39.0927V47.1875H80.406V43.899H76.7875V47.1875H75.1927V39.0927H76.7875V42.3592H80.406V39.0927H82.0008ZM85.6808 43.1511C85.6808 42.5938 85.7871 42.0659 85.9997 41.5673C86.2124 41.0687 86.5056 40.6288 86.8796 40.2475C87.2609 39.8589 87.7008 39.5546 88.1994 39.3346C88.698 39.1147 89.2333 39.0047 89.8052 39.0047C90.3698 39.0047 90.9014 39.1147 91.3999 39.3346C91.8985 39.5546 92.3385 39.8589 92.7198 40.2475C93.1084 40.6288 93.409 41.0687 93.6216 41.5673C93.8416 42.0659 93.9516 42.5938 93.9516 43.1511C93.9516 43.723 93.8416 44.2583 93.6216 44.7568C93.409 45.2554 93.1084 45.6954 92.7198 46.0767C92.3385 46.4506 91.8985 46.7439 91.3999 46.9565C90.9014 47.1692 90.3698 47.2755 89.8052 47.2755C89.2333 47.2755 88.698 47.1692 88.1994 46.9565C87.7008 46.7439 87.2609 46.4506 86.8796 46.0767C86.5056 45.6954 86.2124 45.2554 85.9997 44.7568C85.7871 44.2583 85.6808 43.723 85.6808 43.1511ZM87.3305 43.1511C87.3305 43.5104 87.3929 43.8476 87.5175 44.1629C87.6495 44.4709 87.8291 44.7458 88.0564 44.9878C88.2911 45.2224 88.5587 45.4058 88.8593 45.5377C89.1673 45.6697 89.5009 45.7357 89.8602 45.7357C90.2048 45.7357 90.5237 45.6697 90.817 45.5377C91.1177 45.4058 91.378 45.2224 91.5979 44.9878C91.8179 44.7458 91.9902 44.4709 92.1148 44.1629C92.2395 43.8476 92.3018 43.5104 92.3018 43.1511C92.3018 42.7845 92.2358 42.4435 92.1038 42.1282C91.9792 41.8129 91.8032 41.538 91.5759 41.3033C91.356 41.0614 91.0957 40.8744 90.795 40.7424C90.4944 40.6104 90.1681 40.5444 89.8162 40.5444C89.4642 40.5444 89.1379 40.6104 88.8373 40.7424C88.5367 40.8744 88.2727 41.0614 88.0454 41.3033C87.8181 41.538 87.6422 41.8129 87.5175 42.1282C87.3929 42.4435 87.3305 42.7845 87.3305 43.1511ZM97.6312 47.1875V38.7627H97.6422L102.141 45.1418L101.459 44.9878L105.946 38.7627H105.968V47.1875H104.373V42.3592L104.472 43.1841L101.734 47.0775H101.712L98.8961 43.1841L99.171 42.4252V47.1875H97.6312ZM110.15 39.0927H115.671V40.6324H111.745V42.3592H115.22V43.899H111.745V45.6477H115.825V47.1875H110.15V39.0927ZM132.05 47.1875C131.948 47.1875 131.794 47.1875 131.588 47.1875C131.39 47.1875 131.185 47.1875 130.972 47.1875C130.76 47.1875 130.577 47.1875 130.423 47.1875C130.276 47.1875 130.203 47.1875 130.203 47.1875L126.639 42.3922C126.566 42.2895 126.474 42.1502 126.364 41.9742C126.254 41.7909 126.159 41.5893 126.078 41.3693C125.998 41.142 125.957 40.9147 125.957 40.6874C125.957 40.3941 126.031 40.1045 126.177 39.8186C126.331 39.5253 126.562 39.2833 126.87 39.0927C127.185 38.8947 127.581 38.7957 128.058 38.7957C128.578 38.7957 129.037 38.902 129.433 39.1147C129.829 39.3273 130.144 39.5839 130.379 39.8845L129.576 40.9514C129.348 40.7021 129.128 40.5041 128.916 40.3575C128.71 40.2108 128.509 40.1375 128.311 40.1375C128.062 40.1375 127.882 40.2108 127.772 40.3575C127.662 40.5041 127.607 40.6654 127.607 40.8414C127.607 40.9441 127.633 41.0577 127.684 41.1824C127.743 41.2997 127.801 41.4097 127.86 41.5123C127.919 41.6076 127.959 41.6736 127.981 41.7103L132.05 47.1875ZM127.596 43.503C127.42 43.503 127.255 43.5397 127.101 43.613C126.947 43.679 126.811 43.7707 126.694 43.888C126.577 44.0053 126.485 44.1373 126.419 44.2839C126.36 44.4306 126.331 44.5845 126.331 44.7458C126.331 44.9731 126.386 45.1748 126.496 45.3508C126.613 45.5194 126.771 45.6514 126.969 45.7467C127.167 45.842 127.383 45.8897 127.618 45.8897C127.86 45.8897 128.058 45.8567 128.212 45.7907C128.373 45.7174 128.505 45.6221 128.608 45.5047C128.718 45.3874 128.806 45.2591 128.872 45.1198L129.895 45.9667C129.697 46.3406 129.392 46.6596 128.982 46.9235C128.578 47.1875 128.051 47.3195 127.398 47.3195C126.892 47.3195 126.434 47.2132 126.023 47.0005C125.613 46.7879 125.286 46.4946 125.044 46.1207C124.802 45.7467 124.681 45.3178 124.681 44.8338C124.681 44.4672 124.762 44.1299 124.923 43.822C125.092 43.514 125.316 43.2464 125.594 43.0191C125.873 42.7918 126.184 42.6122 126.529 42.4802C126.874 42.3409 127.226 42.2675 127.585 42.2602L127.596 43.503ZM129.994 42.2602H131.445L130.082 45.6917L128.927 45.0098L129.994 42.2602ZM147.2 46.5166C147.112 46.5899 146.947 46.6889 146.705 46.8136C146.47 46.9382 146.181 47.0482 145.836 47.1435C145.491 47.2388 145.11 47.2828 144.692 47.2755C144.054 47.2608 143.482 47.1472 142.976 46.9345C142.478 46.7146 142.053 46.4176 141.701 46.0437C141.356 45.6697 141.092 45.2408 140.909 44.7568C140.725 44.2729 140.634 43.756 140.634 43.2061C140.634 42.5902 140.725 42.0256 140.909 41.5123C141.099 40.9991 141.367 40.5554 141.712 40.1815C142.064 39.8076 142.482 39.5179 142.965 39.3126C143.449 39.1073 143.985 39.0047 144.571 39.0047C145.114 39.0047 145.594 39.078 146.012 39.2246C146.43 39.3713 146.771 39.5289 147.035 39.6976L146.408 41.2044C146.225 41.065 145.979 40.9221 145.671 40.7754C145.37 40.6214 145.022 40.5444 144.626 40.5444C144.318 40.5444 144.021 40.6104 143.735 40.7424C143.457 40.8671 143.207 41.0467 142.987 41.2813C142.775 41.516 142.606 41.7909 142.482 42.1062C142.357 42.4142 142.295 42.7515 142.295 43.1181C142.295 43.5067 142.35 43.8623 142.46 44.1849C142.577 44.5075 142.742 44.7862 142.954 45.0208C143.167 45.2481 143.42 45.4241 143.713 45.5487C144.014 45.6734 144.351 45.7357 144.725 45.7357C145.158 45.7357 145.528 45.6661 145.836 45.5267C146.144 45.3874 146.379 45.2408 146.54 45.0868L147.2 46.5166ZM150.887 39.0927H156.408V40.6324H152.482V42.3592H155.958V43.899H152.482V45.6477H156.562V47.1875H150.887V39.0927ZM160.302 47.1875V38.7627H160.313L164.811 45.1418L164.13 44.9878L168.617 38.7627H168.639V47.1875H167.044V42.3592L167.143 43.1841L164.405 47.0775H164.383L161.567 43.1841L161.842 42.4252V47.1875H160.302ZM172.821 39.0927H178.342V40.6324H174.416V42.3592H177.891V43.899H174.416V45.6477H178.496V47.1875H172.821V39.0927ZM181.686 39.0927H187.141V40.6324H185.172V47.1875H183.578V40.6324H181.686V39.0927ZM190.77 39.0927H196.291V40.6324H192.365V42.3592H195.84V43.899H192.365V45.6477H196.445V47.1875H190.77V39.0927ZM202.637 39.0927C203.143 39.0927 203.594 39.1586 203.99 39.2906C204.386 39.4153 204.716 39.5986 204.98 39.8405C205.251 40.0752 205.457 40.3611 205.596 40.6984C205.735 41.0284 205.805 41.4023 205.805 41.8203C205.805 42.1502 205.754 42.4802 205.651 42.8101C205.556 43.1401 205.394 43.4407 205.167 43.712C204.947 43.9833 204.654 44.2033 204.287 44.3719C203.921 44.5332 203.466 44.6139 202.923 44.6139H201.779V47.1875H200.185V39.0927H202.637ZM202.912 43.0741C203.154 43.0741 203.356 43.0338 203.517 42.9531C203.679 42.8724 203.803 42.7698 203.891 42.6451C203.987 42.5205 204.052 42.3922 204.089 42.2602C204.133 42.1209 204.155 41.9926 204.155 41.8753C204.155 41.7873 204.14 41.6773 204.111 41.5453C204.089 41.406 204.038 41.2667 203.957 41.1274C203.877 40.9881 203.752 40.8707 203.583 40.7754C203.422 40.6801 203.202 40.6324 202.923 40.6324H201.779V43.0741H202.912ZM204.408 44.0639L206.41 47.1875H204.551L202.505 44.1079L204.408 44.0639ZM211.26 44.6689L208.279 39.0927H210.248L212.338 43.2941L211.865 43.3271L213.921 39.0927H215.89L212.855 44.6689V47.1875H211.26V44.6689Z" fill="#6277A8"/>
</svg>
